<?xml version="1.0" encoding="UTF-8"?>
<svg width="19px" height="12px" viewBox="0 0 19 12" version="1.1" xmlns="http://www.w3.org/2000/svg" xmlns:xlink="http://www.w3.org/1999/xlink">
    <!-- Generator: Sketch 48.2 (47327) - http://www.bohemiancoding.com/sketch -->
    <title>behance</title>
    <desc>Created with Sketch.</desc>
    <defs></defs>
    <g id="Artboard" stroke="none" stroke-width="1" fill="none" fill-rule="evenodd" transform="translate(-26.000000, -292.000000)">
        <g id="behance" transform="translate(20.000000, 283.000000)">
            <rect id="Rectangle-11-Copy" x="0" y="0" width="30" height="30"></rect>
            <path d="M6,9 L6,21 L11.6636007,21 C12.1883749,21 15.8023859,20.8910471 15.8023859,17.5135135 C15.8023859,15.4028718 14.3840105,14.6858108 13.6636835,14.472973 C14.1934087,14.217061 15.2479075,13.6089529 15.2479075,11.9797297 C15.2479075,11.0726355 15.1216645,9 11.5051783,9 L6,9 Z M18.9114254,10.1148649 L18.9114254,11.2094595 L23.2878442,11.2094595 L23.2878442,10.1148649 L18.9114254,10.1148649 Z M8.57436397,11.0472973 L10.9903055,11.0472973 C11.2180377,11.0472973 12.7527547,10.9231421 12.7527547,12.4256757 C12.7527547,13.7103042 11.6437979,13.8445946 11.1883335,13.8445946 L8.57436397,13.8445946 L8.57436397,11.0472973 Z M21.2085502,12.2027027 C17.8990075,12.2027027 17.2083847,15.1444255 17.2083847,16.4189189 C17.2083847,20.2018579 20.238213,20.6351351 21.2085502,20.6351351 C23.824995,20.6351351 24.5676,18.902027 24.8720682,17.9391892 L22.9709994,17.9391892 C22.8967392,18.1875003 22.3422608,18.9932432 21.2877614,18.9932432 C19.5203619,18.9932432 19.3668898,17.5793922 19.3668898,16.9459459 L24.990885,16.9459459 C25.1047514,14.7567568 24.1690688,12.2027027 21.2085502,12.2027027 Z M21.1491418,13.8445946 C21.6763912,13.8445946 22.1021514,14.0016895 22.3571126,14.2905405 C22.6120738,14.5819258 22.8002004,15.0076015 22.8521826,15.5675676 L19.3668898,15.5675676 C19.3767912,15.4130069 19.4114465,15.2356417 19.4659038,15.0405405 C19.5203619,14.8403715 19.6045234,14.6503382 19.743143,14.472973 C19.8817626,14.2981421 20.0748403,14.146115 20.2976214,14.027027 C20.5253536,13.9054054 20.8075438,13.8445946 21.1491418,13.8445946 Z M8.57436397,15.6486486 L11.3665587,15.6486486 C11.9210371,15.6486486 13.2280219,15.7373312 13.2280219,17.3716216 C13.2280219,18.9552363 11.5819143,18.9527027 11.3269531,18.9527027 L8.57436397,18.9527027 L8.57436397,15.6486486 Z" id="Shape" fill="#2145FF" fill-rule="nonzero"></path>
        </g>
    </g>
</svg>