<?xml version="1.0" encoding="UTF-8"?>
<svg width="19px" height="16px" viewBox="0 0 19 16" version="1.1" xmlns="http://www.w3.org/2000/svg" xmlns:xlink="http://www.w3.org/1999/xlink">
    <!-- Generator: Sketch 48.2 (47327) - http://www.bohemiancoding.com/sketch -->
    <title>medium</title>
    <desc>Created with Sketch.</desc>
    <defs></defs>
    <g id="Artboard" stroke="none" stroke-width="1" fill="none" fill-rule="evenodd" transform="translate(-26.000000, -243.000000)">
        <g id="medium" transform="translate(20.000000, 236.000000)">
            <rect id="Rectangle-11" x="0" y="0" width="30" height="30"></rect>
            <path d="M18.3809524,7.00681618 C17.9233629,7.05145904 17.5066962,7.31559618 17.25,7.72110189 L14.6011905,11.9175305 C14.1547619,11.2218457 13.80878,10.6824114 13.5595238,10.3401495 C13.2358629,9.89372094 13.0238095,9.72259046 12.8452381,9.6556257 L7.99404762,7.27467332 C7.5252981,7.04773904 7.02678571,7.05145904 6.625,7.30443523 C6.22693429,7.55369142 6,7.98151904 6,8.49491142 L6,19.0901495 C6,19.7337505 6.42782762,20.3847924 7.01190476,20.6675305 L11.4464286,22.8401495 C12.1123514,23.0894057 12.6480657,22.9964 12.9345238,22.8103876 C13.3549105,22.5350905 13.5892857,22.0589 13.5892857,21.5008638 L13.5892857,18.3461019 L17.6666667,20.3103876 L22.6666667,22.7508638 C23.0833333,22.9331552 23.819941,22.985239 24.3333333,22.7211019 C24.7723219,22.4941676 24.9880952,21.9993762 24.9880952,21.4711019 C24.9880952,21.4711019 24.9918152,12.5202095 24.9880952,10.8461019 C24.9843752,10.492679 24.8095238,10.0462505 24.1845238,9.68538761 C23.5,9.29476284 22.1235124,8.59163808 19.2142857,7.1556257 C18.9538695,7.02913808 18.6562505,6.98077427 18.3809524,7.00681618 Z M18.6785714,9.0306257 C19.9471724,9.6556257 21.625,10.488959 22.6369048,10.9949114 L18.3214286,17.7806257 L15.7321429,13.6734828 L18.6785714,9.0306257 Z M7.9047619,9.32824475 L11.6547619,11.1734828 L11.6845238,20.8461019 L7.9047619,19.0008638 L7.9047619,9.32824475 Z M13.5595238,13.8520543 C13.6227676,13.9487809 15.7321429,17.2449114 15.7321429,17.2449114 L13.5595238,16.2032447 L13.5595238,13.8520543 Z M23.0833333,13.8520543 L23.0833333,20.81634 L19.6904762,19.1794352 L23.0833333,13.8520543 Z" id="Shape" fill="#2145FF" fill-rule="nonzero"></path>
        </g>
    </g>
</svg>