<?xml version="1.0" encoding="UTF-8"?>
<svg width="288px" height="36px" viewBox="0 0 288 36" version="1.1" xmlns="http://www.w3.org/2000/svg" xmlns:xlink="http://www.w3.org/1999/xlink">
    <!-- Generator: Sketch 48.2 (47327) - http://www.bohemiancoding.com/sketch -->
    <title>Js-logos</title>
    <desc>Created with Sketch.</desc>
    <defs></defs>
    <g id="Artboard" stroke="none" stroke-width="1" fill="none" fill-rule="evenodd" transform="translate(-232.000000, -1410.000000)">
        <g id="Js-logos" transform="translate(232.000000, 1410.000000)" fill-rule="nonzero">
            <g id="meteor-seeklogo.com" transform="translate(133.000000, 1.000000)" fill="#DF4F4F">
                <path d="M0.0599649509,0.0608663186 L29.9824756,32.2591489 C29.9824756,32.2591489 31.0018797,32.9895447 31.7814242,32.1374162 C32.5609684,31.2852878 31.961319,30.4331593 31.961319,30.4331593 L0.0599649509,0.0608663186 Z" id="Shape"></path>
                <path d="M9.53442721,3.10418224 L32.3211086,28.0593729 C32.3211086,28.0593729 33.3405129,28.7897686 34.1200572,27.9376401 C34.8996015,27.0855118 34.2999521,26.2333833 34.2999521,26.2333833 L9.53442721,3.10418224 Z" id="Shape"></path>
                <path d="M2.87831764,9.61687835 L25.6649991,34.5720689 C25.6649991,34.5720689 26.6844033,35.3024647 27.4639477,34.4503364 C28.243492,33.5982079 27.6438425,32.7460793 27.6438425,32.7460793 L2.87831764,9.61687835 Z" id="Shape"></path>
                <path d="M17.5438547,5.72143394 L33.4635485,23.1561356 C33.4635485,23.1561356 34.1757454,23.6664196 34.7203664,23.0710882 C35.2649876,22.4757571 34.8460481,21.8804257 34.8460481,21.8804257 L17.5438547,5.72143394 Z" id="Shape"></path>
                <path d="M5.07114491,17.1643018 L20.9908386,34.5990035 C20.9908386,34.5990035 21.7030356,35.1092875 22.2476565,34.5139561 C22.7922777,33.9186249 22.3733383,33.3232936 22.3733383,33.3232936 L5.07114491,17.1643018 Z" id="Shape"></path>
                <path d="M25.724964,9.49514572 L32.9403052,17.4211397 C32.9403052,17.4211397 33.2926058,17.6602457 33.5620123,17.3812886 C33.8314186,17.1023315 33.6241829,16.8233743 33.6241829,16.8233743 L25.724964,9.49514572 Z" id="Shape"></path>
                <path d="M9.05470765,25.1986558 L16.2700489,33.1246499 C16.2700489,33.1246499 16.6223494,33.363756 16.8917559,33.0847989 C17.1611621,32.8058417 16.9539266,32.5268846 16.9539266,32.5268846 L9.05470765,25.1986558 Z" id="Shape"></path>
            </g>
            <g id="javascript-js-seeklogo.com">
                <polygon id="Shape" fill="#F7DF1E" points="0 0 35 0 35 35 0 35"></polygon>
                <path d="M9.20277777,29.2485555 L11.8812222,27.6276111 C12.3979444,28.5437778 12.868,29.3189445 13.9955,29.3189445 C15.0762778,29.3189445 15.7576666,28.8961667 15.7576666,27.2517223 L15.7576666,16.0683888 L19.0467778,16.0683888 L19.0467778,27.2982222 C19.0467778,30.7048889 17.0498889,32.2555 14.1365,32.2555 C11.5053333,32.2555 9.97800001,30.8927778 9.20272222,29.2482777" id="Shape" fill="#000000"></path>
                <path d="M20.8333333,28.8961112 L23.5114444,27.3455 C24.2164445,28.4968333 25.1327222,29.3425556 26.7537222,29.3425556 C28.1165556,29.3425556 28.9856111,28.6611667 28.9856111,27.7213889 C28.9856111,26.5936666 28.0928889,26.1942222 26.5892222,25.5366111 L25.7671667,25.1839444 C23.3941112,24.1738889 21.8199445,22.9052223 21.8199445,20.2268333 C21.8199445,17.7599445 23.6994445,15.8803333 26.6363333,15.8803333 C28.7273334,15.8803333 30.2309444,16.6087223 31.3115555,18.5117778 L28.7506666,20.1562778 C28.1867778,19.1461111 27.5761112,18.7467778 26.6363889,18.7467778 C25.6731111,18.7467778 25.0622222,19.3576111 25.0622222,20.1562778 C25.0622222,21.1430555 25.6731111,21.5425555 27.0826112,22.1534444 L27.9048334,22.5058333 C30.7006667,23.7041111 32.2748333,24.9256667 32.2748333,27.6743888 C32.2748333,30.6348334 29.9489445,32.2557778 26.8242778,32.2557778 C23.7700556,32.2557778 21.7965001,30.7992222 20.8333889,28.8961112" id="Shape" fill="#000000"></path>
            </g>
            <g id="rails-1" transform="translate(211.000000, 4.000000)" fill="#CC0000">
                <path d="M66.9526718,22.935825 L66.9526718,26.2702703 L73.3571091,26.2702703 C74.6693332,26.2702703 76.9216583,25.3675751 77,22.8437133 L77,21.5541488 C77,19.3987339 75.1197982,18.1275918 73.3571091,18.1275918 L70.1646832,18.1275918 L70.1646832,16.5801145 L76.4907787,16.5801145 L76.4907787,13.2272469 L70.4192938,13.2272469 C68.852459,13.2272469 66.7568175,14.4431219 66.7568175,16.7090709 L66.7568175,17.8696789 C66.7568175,20.1356279 68.8328736,21.2962359 70.4192938,21.2962359 C74.8260167,21.3146583 69.3616803,21.2962359 73.4354508,21.2962359 L73.4354508,22.9174027 L66.9526718,22.935825 Z M32.6389896,22.1252417 C32.6389896,22.1252417 36.0664407,21.8489064 36.0664407,17.6854554 C36.0664407,13.5220045 31.9143285,13.1351351 31.9143285,13.1351351 L24.4326923,13.1351351 L24.4326923,26.2702703 L28.1930958,26.2702703 L28.1930958,23.1016262 L31.4442781,26.2702703 L37.0065416,26.2702703 L32.6389896,22.1252417 Z M31.1896674,19.4355786 L28.1930958,19.4355786 L28.1930958,16.4327357 L31.2092528,16.4327357 C31.2092528,16.4327357 32.0514265,16.7274933 32.0514265,17.924946 C32.0514265,19.1223987 31.1896674,19.4355786 31.1896674,19.4355786 Z M45.3499369,13.2272469 L41.5307771,13.2272469 C38.8084016,13.2272469 37.8878862,15.5484629 37.8878862,16.6538039 L37.8878862,26.2702703 L41.707046,26.2702703 L41.707046,23.9674766 L45.2911806,23.9674766 L45.2911806,26.2702703 L48.9928279,26.2702703 L48.9928279,16.6538039 C48.9928279,13.8536068 46.2900378,13.2272469 45.3499369,13.2272469 Z M45.2911806,20.246162 L41.6874606,20.246162 L41.6874606,17.0590956 C41.6874606,17.0590956 41.6874606,16.3406239 42.8821721,16.3406239 L44.1943963,16.3406239 C45.2520098,16.3406239 45.2715952,17.0590956 45.2715952,17.0590956 L45.2715952,20.246162 L45.2911806,20.246162 Z M50.7359316,13.2272469 L54.7117749,13.2272469 L54.7117749,26.2702703 L50.7359316,26.2702703 L50.7359316,13.2272469 Z M60.2936239,22.8989803 L60.2936239,13.2272469 L56.337366,13.2272469 L56.337366,26.2702703 L65.6404477,26.2702703 L65.6404477,22.8989803 L60.2936239,22.8989803 Z" id="Shape"></path>
                <path d="M1.48076923,27 L16.9149927,27 C16.9149927,27 13.9649069,13.7639591 23.7334027,8.40422696 C25.8629348,7.38606997 32.6422709,3.58238912 43.7392822,11.650803 C44.0909481,11.3626454 44.4230769,11.1321193 44.4230769,11.1321193 C44.4230769,11.1321193 34.2638413,1.16186494 22.9519231,2.27607449 C17.2666585,2.77554773 10.2724155,7.8663327 6.16964723,14.590011 C2.06687898,21.3136892 1.48076923,27 1.48076923,27 Z" id="Shape"></path>
                <path d="M1.48076923,27 L16.9149927,27 C16.9149927,27 13.9649069,13.7639591 23.7334027,8.40422696 C25.8629348,7.38606997 32.6422709,3.58238912 43.7392822,11.650803 C44.0909481,11.3626454 44.4230769,11.1321193 44.4230769,11.1321193 C44.4230769,11.1321193 34.2638413,1.16186494 22.9519231,2.27607449 C17.2666585,2.77554773 10.2724155,7.8663327 6.16964723,14.590011 C2.06687898,21.3136892 1.48076923,27 1.48076923,27 Z" id="Shape"></path>
                <path d="M1.48076923,27 L16.9149927,27 C16.9149927,27 13.9649069,13.7986253 23.7334027,8.4529308 C25.8629348,7.43744044 32.6422709,3.64372174 43.7392822,11.6910038 C44.0909481,11.4036009 44.4230769,11.1736786 44.4230769,11.1736786 C44.4230769,11.1736786 34.2638413,1.22953711 22.9519231,2.34082845 C17.2471215,2.83899353 10.2528785,7.91644533 6.15011024,14.6225137 C2.04734199,21.3285821 1.48076923,27 1.48076923,27 Z M33.6386575,3.4137994 L33.7168055,2.1300663 C33.5409726,2.03426532 33.0525478,1.80434298 31.8217173,1.45945946 L31.7435693,2.72403236 C32.3882901,2.93479451 33.0134738,3.16471685 33.6386575,3.4137994 Z" id="Shape"></path>
                <path d="M31.3996254,7.19971404 L31.3221433,8.41575153 C31.9613708,8.43505372 32.6005982,8.51226245 33.2398256,8.64737772 L33.3173077,7.45064241 C32.6587097,7.31552714 32.0194823,7.23831841 31.3996254,7.19971404 Z M24.2325302,1.17743313 L24.4262355,1.17743313 L24.0388249,0 C23.4383386,0 22.8184817,0.0386043648 22.1792542,0.115813095 L22.5472943,1.25464186 C23.1090396,1.19673531 23.6707849,1.17743313 24.2325302,1.17743313 Z M25.1623155,8.28063626 L25.6078377,9.61248684 C26.169583,9.34225629 26.7313283,9.1106301 27.2930736,8.93691046 L26.866922,7.66296642 C26.208324,7.85598824 25.6465787,8.06831225 25.1623155,8.28063626 Z M16.3680959,3.20416228 L15.4964222,1.87231169 C15.012159,2.12324007 14.5085253,2.39347062 13.985521,2.70230554 L14.8765653,4.05345831 C15.380199,3.74462339 15.8644622,3.45509065 16.3680959,3.20416228 Z M20.3390541,11.8901444 L21.2688394,13.2799015 C21.5981384,12.7973469 21.985549,12.3533967 22.4117006,11.9094466 L21.5400268,10.5968981 C21.0945047,11.002244 20.6877236,11.4461942 20.3390541,11.8901444 Z M17.5303276,18.1054471 L19.0993403,19.3407868 C19.1768225,18.5880017 19.3124161,17.8352166 19.5061214,17.0824314 L18.1114434,15.982207 C17.8596266,16.6963878 17.6852918,17.4105685 17.5303276,18.1054471 Z M9.04603645,8.93691046 L7.67072898,7.74017515 C7.16709526,8.22272971 6.68283207,8.70528427 6.23730993,9.18783883 L7.72884056,10.4617829 C8.13562165,9.94062395 8.58114378,9.41946502 9.04603645,8.93691046 Z M3.19613708,17.564986 L0.968526386,16.7542943 C0.60048636,17.5842882 0.193705277,18.5493973 0,19.0705562 L2.22761069,19.8812479 C2.47942755,19.2249737 2.88620863,18.2791667 3.19613708,17.564986 Z M17.2397697,23.0082014 C17.2785107,24.0312171 17.3753634,24.861211 17.472216,25.4402764 L19.7966793,26.2702703 C19.6223446,25.5174852 19.4480098,24.6681891 19.3317867,23.7609866 L17.2397697,23.0082014 Z" id="Shape"></path>
            </g>
            <g id="react" transform="translate(66.000000, 1.000000)">
                <path d="M0.117484299,17.4619565 C0.117484299,20.3859783 3.0410359,23.1155217 7.65003533,24.6541522 C6.72963778,29.1793478 7.48518336,32.8268043 10.0084469,34.2479565 C12.601983,35.7088261 16.4658764,34.6976304 20.1332875,31.5666522 C23.7081446,34.5711739 27.3210205,35.7535652 29.8421027,34.3283043 C32.4333015,32.8633261 33.2212566,28.968587 32.2754612,24.3020217 C37.0761128,22.7519783 39.7614236,20.4244783 39.7614236,17.4619565 C39.7614236,14.6058043 36.8325743,12.1349565 32.2855892,10.6062174 C33.3038384,5.74684783 32.4410923,2.18795652 29.813277,0.708065217 C27.2798855,-0.718717391 23.6249396,0.524847826 19.9975729,3.6078913 C16.2237403,0.335543478 12.6049434,-0.663478261 9.97993285,0.820521739 C7.44887853,2.25141304 6.7266773,5.96521739 7.65003533,10.5741087 C3.19653899,12.0905217 0.117484299,14.6173696 0.117484299,17.4619565 Z" id="Shape" fill="#FFFFFF"></path>
                <path d="M31.3226542,12.1243043 C30.9479149,11.9987651 30.5699962,11.8824673 30.1892579,11.7755217 C30.252398,11.524953 30.3107866,11.2732651 30.3643937,11.020587 C31.2223095,6.95328261 30.6613765,3.67667391 28.7457903,2.59806522 C26.9092022,1.56358696 23.9054061,2.64219565 20.8716934,5.22047826 C20.5727603,5.47511743 20.2804625,5.73709232 19.9950798,6.00615217 C19.8039668,5.82724332 19.6094767,5.65180742 19.4117095,5.47993478 C16.2323101,2.72284783 13.0454317,1.56115217 11.1318711,2.64295652 C9.29699693,3.68032609 8.75351518,6.76078261 9.52588875,10.6153478 C9.60273453,10.9970622 9.6894994,11.376808 9.78609934,11.7542174 C9.33517154,11.8793043 8.89966939,12.0126087 8.48302083,12.1544348 C4.75562109,13.4235652 2.37508379,15.4127826 2.37508379,17.4759565 C2.37508379,19.607 4.9304452,21.7444348 8.81303641,23.0403478 C9.12785722,23.1449416 9.44529844,23.2418557 9.76506435,23.331 C9.66118297,23.7375996 9.56895659,24.146955 9.48849322,24.558587 C8.75211285,28.3461957 9.32722499,31.3536087 11.1572689,32.384587 C13.0474573,33.4490435 16.219845,32.354913 19.3090276,29.7177391 C19.5531893,29.5092609 19.7982858,29.2881522 20.043694,29.0563913 C20.3528027,29.3476612 20.6701647,29.6304595 20.9954103,29.9044565 C23.9876762,32.4191304 26.9428582,33.434587 28.771344,32.4008696 C30.6598184,31.3332174 31.2734167,28.102413 30.4765803,24.1716087 C30.4158125,23.8713696 30.3449168,23.5647391 30.2654513,23.2524783 C30.4882664,23.1882609 30.7068744,23.121913 30.9201848,23.0528261 C34.9564093,21.7468696 37.5823548,19.6354565 37.5823548,17.4759565 C37.5823548,15.4053261 35.1251566,13.4027174 31.3226542,12.1243043 Z" id="Shape" fill="#53C1DE"></path>
                <path d="M30.4471313,21.6586087 C30.2547001,21.7208478 30.057127,21.7809565 29.8558144,21.8392391 C29.4101843,20.4616087 28.8087395,18.9966304 28.0729824,17.4832609 C28.7752393,16.0056522 29.3533119,14.5595435 29.7864769,13.1907391 C30.1465647,13.2926957 30.4962129,13.3999783 30.8330843,13.5133478 C34.0911701,14.6085435 36.0784311,16.2281304 36.0784311,17.4759565 C36.0784311,18.8051957 33.9320833,20.5308478 30.4472871,21.6586087 L30.4471313,21.6586087 Z M29.0011707,24.4569348 C29.3534678,26.1950652 29.4037959,27.7665652 29.1703855,28.9950652 C28.9606588,30.0989348 28.5390242,30.8348478 28.0176682,31.1296087 C26.9081115,31.7568696 24.5352092,30.9415217 21.9764198,28.791 C21.6830207,28.5444783 21.3874402,28.2812174 21.0910806,28.0027391 C22.0831529,26.943 23.074602,25.711 24.0422114,24.3429565 C25.7443314,24.1955 27.3523393,23.9543043 28.8106093,23.6251522 C28.882284,23.9081957 28.9461681,24.1856087 29.0011707,24.4569348 Z M14.3779592,31.0212609 C13.2939561,31.3951522 12.4305868,31.4058043 11.9087633,31.1119565 C10.7981159,30.4865217 10.3365927,28.0715217 10.96624,24.8325 C11.0411152,24.4497157 11.1268463,24.0690331 11.2233343,23.6908913 C12.6653996,24.0023913 14.2617214,24.2265435 15.9678926,24.3616739 C16.9418904,25.7003478 17.9620094,26.9308261 18.9900749,28.0083696 C18.7715836,28.2147879 18.5479217,28.4159213 18.3192925,28.611587 C16.9532649,29.7778478 15.5844325,30.6050652 14.378115,31.0212609 L14.3779592,31.0212609 Z M9.29948997,21.6503913 C7.58272337,21.0773043 6.16496523,20.3325652 5.19314882,19.5199565 C4.31996313,18.7895217 3.87900747,18.064413 3.87900747,17.4759565 C3.87900747,16.2240217 5.79038664,14.6269565 8.97820001,13.5415 C9.37831651,13.4058548 9.78241329,13.2816784 10.1899711,13.1691304 C10.6306151,14.5686739 11.2085319,16.0319783 11.9059586,17.5117174 C11.1994947,19.0135217 10.6133197,20.5001087 10.1686245,21.916087 C9.87672763,21.8344901 9.5869286,21.7458981 9.29948997,21.6503913 Z M11.0019216,10.3332174 C10.3401765,7.03058696 10.779574,4.53934783 11.8853911,3.91421739 C13.0633504,3.24830435 15.6677934,4.19786957 18.4129372,6.57832609 C18.5883845,6.7305 18.764611,6.88982609 18.9411491,7.05463043 C17.9183812,8.12730435 16.9076111,9.3485 15.9420273,10.679413 C14.2861843,10.8293043 12.7010811,11.0700435 11.2439019,11.3925 C11.1541407,11.0413967 11.0734549,10.6881396 11.0019216,10.3330652 L11.0019216,10.3332174 Z M26.188715,13.995587 C25.8445323,13.4149567 25.4875818,12.8416353 25.118112,12.2760217 C26.2415362,12.4145 27.3177484,12.5986304 28.3283627,12.824 C28.0249914,13.7737174 27.6468291,14.7668043 27.2015107,15.7848478 C26.876141,15.1819028 26.5384751,14.5853636 26.188715,13.995587 Z M19.9955473,8.10432609 C20.6892344,8.83826087 21.3840122,9.65786957 22.0674156,10.5470217 C20.6811337,10.4830448 19.2925389,10.4827401 17.9062277,10.5461087 C18.5902543,9.66517391 19.2909531,8.84678261 19.9955473,8.10432609 Z M13.7626468,14.0056304 C13.4172657,14.5907166 13.0859134,15.1835954 12.7688605,15.7837826 C12.3308654,14.7692391 11.956131,13.7717391 11.6501108,12.8084783 C12.6546483,12.5888913 13.7258745,12.4094783 14.8419754,12.2732826 C14.4683649,12.8424016 14.1084895,13.42001 13.7626468,14.0056304 Z M14.8740732,22.7834783 C13.7210443,22.6577826 12.6336134,22.4875 11.6293875,22.274 C11.9402378,21.2936957 12.3232304,20.2747391 12.7705745,19.2384348 C13.088964,19.8390668 13.4217724,20.4323033 13.7687236,21.0176522 C14.122752,21.6147564 14.4913066,22.2035324 14.8740732,22.7834783 Z M20.0371498,26.9513696 C19.3242975,26.200087 18.6133149,25.3692174 17.9188487,24.4755 C18.5929032,24.5013696 19.2802019,24.5144565 19.9787193,24.5144565 C20.6964019,24.5144565 21.4058263,24.4987826 22.1040321,24.4683478 C21.4184473,25.3783478 20.7261625,26.2104348 20.0371498,26.9513696 Z M27.2158456,19.1856304 C27.6864061,20.2331957 28.0831103,21.2466739 28.3981677,22.2103913 C27.3772697,22.4378913 26.2751921,22.6211087 25.113905,22.7571522 C25.4860453,22.1809782 25.8464122,21.5976309 26.1947917,21.0074565 C26.5489408,20.4076548 26.8893764,19.800229 27.2158456,19.1856304 Z M24.891869,20.2736739 C24.3585464,21.1784933 23.7952382,22.0661363 23.2028375,22.9351957 C22.1582556,23.008087 21.0787712,23.0456739 19.9787193,23.0456739 C18.883186,23.0456739 17.8174133,23.0123478 16.7910617,22.9473696 C16.1832965,22.0803337 15.6093321,21.1911544 15.0703998,20.2817391 C14.5339865,19.3771488 14.0329408,18.4529902 13.5683459,17.5112609 C14.0317591,16.5692495 14.5312907,15.6445957 15.0658811,14.7392609 L15.0658811,14.7395652 C15.6003039,13.8340375 16.1697497,12.9486603 16.7729872,12.0853478 C17.8200621,12.0080435 18.8936256,11.9675652 19.9788751,11.9675652 C21.0689549,11.9675652 22.1439206,12.0083478 23.1906839,12.0862609 C23.7878198,12.9482448 24.3536235,13.8305402 24.8870388,14.7315 C25.4234676,15.6348207 25.9296657,16.554945 26.40483,17.490413 C25.9345535,18.4354121 25.4299653,19.3637541 24.8920249,20.2736739 L24.891869,20.2736739 Z M27.9946076,3.87054348 C29.1735018,4.53463043 29.6320645,7.21243478 28.8913213,10.7241522 C28.8427695,10.9529193 28.7899917,11.1808116 28.7330135,11.4077174 C27.2724063,11.0785652 25.6862125,10.8335652 24.0255392,10.6813913 C23.0580856,9.33602174 22.0557295,8.11269565 21.049478,7.05386957 C21.3131576,6.80560512 21.5831119,6.56377688 21.8590913,6.3286087 C24.4583925,4.11934783 26.8876998,3.24708696 27.9946076,3.87054348 Z" id="Shape" fill="#FFFFFF"></path>
                <path d="M19.9787193,14.4055435 C21.7151185,14.4055435 23.1225929,15.7802826 23.1225929,17.4759565 C23.1225929,19.1717826 21.7151185,20.5465217 19.9787193,20.5465217 C18.2424759,20.5465217 16.8348457,19.1717826 16.8348457,17.4759565 C16.8348457,15.7802826 18.2424759,14.4055435 19.9787193,14.4055435" id="Shape" fill="#53C1DE"></path>
            </g>
        </g>
    </g>
</svg>