<?xml version="1.0" encoding="UTF-8"?>
<svg width="15px" height="14px" viewBox="0 0 15 14" version="1.1" xmlns="http://www.w3.org/2000/svg" xmlns:xlink="http://www.w3.org/1999/xlink">
    <!-- Generator: Sketch 48.2 (47327) - http://www.bohemiancoding.com/sketch -->
    <title>Group 3</title>
    <desc>Created with Sketch.</desc>
    <defs></defs>
    <g id="Artboard" stroke="none" stroke-width="1" fill="none" fill-rule="evenodd" transform="translate(-244.000000, -840.000000)">
        <g id="Group-3" transform="translate(244.000000, 840.000000)" fill="#A4A4A4">
            <path d="M14.385,6.49 L14.355,6.55 L14.385,6.55 L14.385,7.75 C14.385,7.9100008 14.3550003,8.06499925 14.295,8.215 L12.39,12.61 C12.3099996,12.8400012 12.1650011,13.0249993 11.955,13.165 C11.7449989,13.3050007 11.5100013,13.375 11.25,13.375 L5.625,13.375 C5.2849983,13.375 4.99000125,13.2500012 4.74,13 C4.48999875,12.7499988 4.365,12.4550017 4.365,12.115 L4.365,5.875 C4.365,5.5549984 4.48999875,5.26000135 4.74,4.99 L8.85,0.865 L9.525,1.54 C9.69500085,1.71000085 9.78,1.9249987 9.78,2.185 L9.78,2.395 L9.165,5.26 L13.125,5.26 C13.4650017,5.26 13.7599988,5.3799988 14.01,5.62 C14.2600013,5.8600012 14.385,6.1499983 14.385,6.49 Z M0.615,13.375 L0.615,5.875 L3.135,5.875 L3.135,13.375 L0.615,13.375 Z" id="thumb_up---material"></path>
        </g>
    </g>
</svg>