<?xml version="1.0" encoding="UTF-8"?>
<svg width="248px" height="68px" viewBox="0 0 248 68" version="1.1" xmlns="http://www.w3.org/2000/svg" xmlns:xlink="http://www.w3.org/1999/xlink">
    <!-- Generator: Sketch 48.2 (47327) - http://www.bohemiancoding.com/sketch -->
    <title>designbase-logo</title>
    <desc>Created with Sketch.</desc>
    <defs></defs>
    <g id="Page-1" stroke="none" stroke-width="1" fill="none" fill-rule="evenodd">
        <g id="designbase-logo">
            <path d="M20.608,0.96 L23.68,0.96 L23.68,36 L20.608,36 L20.608,31.632 C18.928,34.704 15.424,36.48 11.68,36.48 C5.44,36.48 0.304,31.584 0.304,24.768 C0.304,17.952 5.392,13.104 11.68,13.104 C15.472,13.104 18.928,14.88 20.608,17.904 L20.608,0.96 Z M11.92,33.552 C16.576,33.552 20.608,30.048 20.608,24.864 C20.608,19.44 16.384,16.032 11.92,16.032 C7.216,16.032 3.376,19.776 3.376,24.72 C3.376,29.712 7.216,33.552 11.92,33.552 Z M52.288,24.72 C52.288,25.152 52.288,25.632 52.24,26.064 L32.944,26.064 C33.472,30.864 36.832,33.552 41.344,33.552 C44.416,33.552 47.152,32.16 48.64,29.712 L51.28,30.864 C49.312,34.464 45.472,36.48 41.248,36.48 C34.912,36.48 29.824,31.824 29.824,24.72 C29.824,17.616 34.912,13.104 41.248,13.104 C47.632,13.104 52.288,17.616 52.288,24.72 Z M32.992,23.424 L49.264,23.424 C48.832,18.768 45.616,16.032 41.248,16.032 C36.832,16.032 33.568,18.624 32.992,23.424 Z M64.624,36.48 C60.736,36.48 56.848,34.224 56.464,29.952 L59.296,29.952 C59.632,31.824 61.36,33.744 64.624,33.744 C67.84,33.744 69.808,32.16 69.808,29.904 C69.808,28.08 68.56,26.88 66.256,26.304 L63.04,25.536 C59.872,24.768 57.328,23.136 57.328,19.392 C57.328,15.744 60.448,13.104 64.72,13.104 C68.464,13.104 71.92,15.168 72.064,19.2 L69.088,19.2 C68.944,17.184 66.976,15.84 64.768,15.84 C62.176,15.84 60.4,17.328 60.4,19.44 C60.4,21.552 62.224,22.464 63.856,22.848 L67.168,23.664 C71.536,24.72 72.88,27.36 72.88,29.952 C72.88,33.936 69.28,36.48 64.624,36.48 Z M80.416,7.488 C79.168,7.488 78.064,6.576 78.064,5.328 C78.064,4.032 79.168,3.12 80.416,3.12 C81.76,3.12 82.816,4.032 82.816,5.328 C82.816,6.576 81.76,7.488 80.416,7.488 Z M78.88,36 L78.88,13.584 L81.952,13.584 L81.952,36 L78.88,36 Z M108.4,13.584 L111.472,13.584 L111.472,32.688 C111.472,43.536 106.624,47.184 99.328,47.184 C95.536,47.184 91.84,45.36 89.632,41.712 L92.224,40.272 C93.856,42.912 96.64,44.256 99.328,44.256 C104.8,44.256 108.4,41.472 108.4,32.832 L108.4,31.68 C106.72,34.704 103.216,36.48 99.472,36.48 C93.232,36.48 88.096,31.584 88.096,24.768 C88.096,17.952 93.184,13.104 99.472,13.104 C103.264,13.104 106.72,14.88 108.4,17.904 L108.4,13.584 Z M99.712,33.552 C104.368,33.552 108.4,30.048 108.4,24.864 C108.4,19.44 104.176,16.032 99.712,16.032 C95.008,16.032 91.168,19.776 91.168,24.72 C91.168,29.712 95.008,33.552 99.712,33.552 Z M130,13.104 C135.424,13.104 139.12,16.752 139.12,22.944 L139.12,36 L136.048,36 L136.048,23.088 C136.048,18.768 133.312,16.128 129.712,16.128 C126.112,16.128 122.32,18.144 122.224,23.568 L122.224,36 L119.152,36 L119.152,13.584 L122.224,13.584 L122.224,17.616 C123.568,14.4 127.216,13.104 130,13.104 Z M158.464,13.104 C164.752,13.104 169.84,17.952 169.84,24.768 C169.84,31.584 164.752,36.48 158.464,36.48 C154.72,36.48 151.168,34.656 149.536,31.584 L149.536,36 L146.464,36 L146.464,0.96 L149.536,0.96 L149.536,17.952 C151.216,14.88 154.672,13.104 158.464,13.104 Z M158.224,33.552 C162.976,33.552 166.816,29.712 166.816,24.72 C166.816,19.776 162.976,16.032 158.224,16.032 C153.76,16.032 149.536,19.44 149.536,24.864 C149.536,30.048 153.568,33.552 158.224,33.552 Z M194.752,13.584 L197.824,13.584 L197.824,36 L194.752,36 L194.752,31.632 C193.072,34.704 189.568,36.48 185.824,36.48 C179.584,36.48 174.448,31.584 174.448,24.768 C174.448,17.952 179.536,13.104 185.824,13.104 C189.616,13.104 193.072,14.88 194.752,17.904 L194.752,13.584 Z M186.064,33.552 C190.72,33.552 194.752,30.048 194.752,24.864 C194.752,19.44 190.528,16.032 186.064,16.032 C181.36,16.032 177.52,19.776 177.52,24.72 C177.52,29.712 181.36,33.552 186.064,33.552 Z M211.84,36.48 C207.952,36.48 204.064,34.224 203.68,29.952 L206.512,29.952 C206.848,31.824 208.576,33.744 211.84,33.744 C215.056,33.744 217.024,32.16 217.024,29.904 C217.024,28.08 215.776,26.88 213.472,26.304 L210.256,25.536 C207.088,24.768 204.544,23.136 204.544,19.392 C204.544,15.744 207.664,13.104 211.936,13.104 C215.68,13.104 219.136,15.168 219.28,19.2 L216.304,19.2 C216.16,17.184 214.192,15.84 211.984,15.84 C209.392,15.84 207.616,17.328 207.616,19.44 C207.616,21.552 209.44,22.464 211.072,22.848 L214.384,23.664 C218.752,24.72 220.096,27.36 220.096,29.952 C220.096,33.936 216.496,36.48 211.84,36.48 Z M247.024,24.72 C247.024,25.152 247.024,25.632 246.976,26.064 L227.68,26.064 C228.208,30.864 231.568,33.552 236.08,33.552 C239.152,33.552 241.888,32.16 243.376,29.712 L246.016,30.864 C244.048,34.464 240.208,36.48 235.984,36.48 C229.648,36.48 224.56,31.824 224.56,24.72 C224.56,17.616 229.648,13.104 235.984,13.104 C242.368,13.104 247.024,17.616 247.024,24.72 Z M227.728,23.424 L244,23.424 C243.568,18.768 240.352,16.032 235.984,16.032 C231.568,16.032 228.304,18.624 227.728,23.424 Z" id="designbase" fill="#FFFFFF"></path>
            <path d="M28.2783191,67 L28.2783191,57.8193447 L29.9716769,57.8193447 L29.9716769,67 L28.2783191,67 Z M34.9953116,67 L34.9953116,57.8193447 L35.1115224,57.8193449 L36.9376925,57.8193449 C38.2446245,59.5009917 40.0873962,61.8807395 42.4660076,64.9585881 L42.4660076,57.8193447 L44.1759669,57.8193447 L44.1759669,67 L42.2169844,67 C41.2175979,65.7110716 39.3748262,63.3304718 36.6886693,59.8582004 L36.6886693,67 L34.9953116,67 Z M55.7240164,60.7080138 C55.7240164,60.1435612 55.5524671,59.7451241 55.2093684,59.5127025 C54.8773375,59.2913486 54.3958926,59.1806715 53.7650339,59.1806715 L50.793357,59.1806715 L50.793357,62.2353561 L53.7650339,62.2353561 C54.3958926,62.2353561 54.8773375,62.124679 55.2093684,61.9033252 C55.5524671,61.6709035 55.7240164,61.2724664 55.7240164,60.7080138 Z M53.7650339,63.5966829 L50.793357,63.5966829 L50.793357,67 L49.0999992,67 L49.0999992,57.8193447 L53.7650339,57.8193447 C54.9603452,57.8193447 55.8844981,58.0739017 56.5374921,58.5830158 C57.1904862,59.09213 57.5169834,59.7949287 57.5169834,60.6914123 L57.5169834,60.7080138 C57.5059156,61.6155651 57.1738847,62.3238976 56.5208906,62.8330118 C55.878964,63.342126 54.9603452,63.5966829 53.7650339,63.5966829 Z M61.8931634,67 L61.8931634,57.8193447 L63.5865212,57.8193447 L63.5865212,67 L61.8931634,67 Z M74.9851498,60.6250061 C74.9851498,60.1158919 74.8136006,59.7451241 74.4705018,59.5127025 C74.1274031,59.2913486 73.6459583,59.1806715 73.0261673,59.1806715 L70.3035136,59.1806715 L70.3035136,62.0693406 L73.0261673,62.0693406 C73.6459583,62.0693406 74.1274031,61.9586636 74.4705018,61.7373097 C74.8136006,61.5048881 74.9851498,61.1341203 74.9851498,60.6250061 Z M74.3893428,63.2939519 C74.9792984,64.0709918 75.9139024,65.306341 77.1931552,66.9999997 L75.151165,66.9999997 C74.6924548,66.3717664 73.8204483,65.1819888 72.5351452,63.4306672 L70.3035134,63.4306672 L70.3035134,66.9999997 L68.6101556,66.9999997 L68.6101556,57.8193444 L73.026167,57.8193444 C74.2436137,57.8193444 75.1733003,58.0739014 75.8152269,58.5830156 C76.4460856,59.0921298 76.761515,59.7727932 76.761515,60.6250058 C76.761515,61.4772185 76.4460856,62.1578819 75.8152269,62.6669961 C75.4449072,62.960698 74.9696124,63.1696833 74.3893431,63.2939522 L74.3893428,63.2939519 Z M86.4501901,57.8193447 C87.4352151,59.8558012 88.9127527,62.9160195 90.882803,67 L88.9902267,67 C88.7641487,66.496794 88.4623844,65.8271981 88.0849337,64.9912129 L83.1153622,64.9912129 C82.8237862,65.6307628 82.5187302,66.3003586 82.2001944,67 L80.4238289,67 C81.1542969,65.4726577 82.6263008,62.4124394 84.8398403,57.8193447 L86.4501901,57.8193447 Z M85.6136635,59.5278353 C85.0733641,60.7042008 84.4349658,62.0992204 83.6984685,63.712894 L87.507402,63.712894 C86.9807328,62.5477778 86.3494864,61.1527582 85.613663,59.527835 L85.6136635,59.5278353 Z M96.3546848,67 L96.3546848,59.1806715 L92.7023445,59.1806715 L92.7023445,57.8193447 L101.716984,57.8193447 L101.716984,59.1806715 L98.0646441,59.1806715 L98.0646441,67 L96.3546848,67 Z M105.927149,67 L105.927149,57.8193447 L107.620506,57.8193447 L107.620506,67 L105.927149,67 Z M120.114837,62.4179731 C120.114837,61.3886772 119.827077,60.5585999 119.251557,59.9277411 C118.664969,59.2858146 117.917899,58.9648514 117.010348,58.9648514 C116.102796,58.9648514 115.361261,59.2858146 114.785741,59.9277411 C114.199153,60.5585999 113.905859,61.3886772 113.905859,62.4179731 C113.905859,63.4362012 114.199153,64.2607448 114.785741,64.8916036 C115.361261,65.5335301 116.102796,65.8544933 117.010348,65.8544933 C117.917899,65.8544933 118.664969,65.5335301 119.251557,64.8916036 C119.827077,64.2607448 120.114837,63.4362012 120.114837,62.4179731 Z M117.010348,67.2490232 C115.538344,67.2490232 114.359634,66.7841799 113.474218,65.8544933 C112.577735,64.9137389 112.129493,63.7682322 112.129493,62.4179731 C112.129493,61.0566463 112.577735,59.9056058 113.474218,58.9648514 C114.359634,58.0351648 115.538344,57.5703215 117.010348,57.5703215 C118.482352,57.5703215 119.666595,58.0351648 120.563079,58.9648514 C121.459562,59.9056058 121.907804,61.0566463 121.907804,62.4179731 C121.907804,63.7682322 121.459562,64.9137389 120.563079,65.8544933 C119.666595,66.7841799 118.482352,67.2490232 117.010348,67.2490232 Z M126.33379,67 L126.33379,57.8193447 L126.45,57.8193449 L128.276171,57.8193449 C129.583103,59.5009917 131.425874,61.8807395 133.804486,64.9585881 L133.804486,57.8193447 L135.514445,57.8193447 L135.514445,67 L133.555462,67 C132.556076,65.7110716 130.713304,63.3304718 128.027147,59.8582004 L128.027147,67 L126.33379,67 Z M151.40557,61.2521682 C152.150089,62.2599917 153.566719,64.1759357 155.655461,67.0000003 L153.563666,67.0000003 C152.97456,66.1975971 151.844822,64.6541548 150.174451,62.3696737 C149.529424,62.9552346 148.832992,63.5875454 148.085156,64.2666059 L148.085156,67 L146.391798,67.0000003 L146.391798,57.8193447 L148.085156,57.8193447 L148.085156,62.2457891 C149.397582,61.0690688 151.041135,59.5935874 153.015815,57.8193447 L155.190618,57.8193447 C154.387646,58.5464449 153.125964,59.6907192 151.40557,61.2521679 L151.40557,61.2521682 Z M159.566798,67 L159.566798,57.8193447 L167.037494,57.8193447 L167.037494,59.1806715 L161.260156,59.1806715 L161.260156,61.6377004 L166.439838,61.6377004 L166.439838,62.9990273 L161.260156,62.9990273 L161.260156,65.6386732 L167.037494,65.6386732 L167.037494,67 L159.566798,67 Z M171.563087,67 L171.563087,57.8193447 L179.033783,57.8193447 L179.033783,59.1806715 L173.256445,59.1806715 L173.256445,61.6377004 L178.436128,61.6377004 L178.436128,62.9990273 L173.256445,62.9990273 L173.256445,65.6386732 L179.033783,65.6386732 L179.033783,67 L171.563087,67 Z M190.183394,60.7080138 C190.183394,60.1435612 190.011844,59.7451241 189.668746,59.5127025 C189.336715,59.2913486 188.85527,59.1806715 188.224411,59.1806715 L185.252734,59.1806715 L185.252734,62.2353561 L188.224411,62.2353561 C188.85527,62.2353561 189.336715,62.124679 189.668746,61.9033252 C190.011844,61.6709035 190.183394,61.2724664 190.183394,60.7080138 Z M188.224411,63.5966829 L185.252734,63.5966829 L185.252734,67 L183.559377,67 L183.559377,57.8193447 L188.224411,57.8193447 C189.419723,57.8193447 190.343875,58.0739017 190.996869,58.5830158 C191.649864,59.09213 191.976361,59.7949287 191.976361,60.6914123 L191.976361,60.7080138 C191.965293,61.6155651 191.633262,62.3238976 190.980268,62.8330118 C190.338341,63.342126 189.419723,63.5966829 188.224411,63.5966829 Z M196.269533,67 L196.269533,57.8193447 L203.740229,57.8193447 L203.740229,59.1806715 L197.962891,59.1806715 L197.962891,61.6377004 L203.142573,61.6377004 L203.142573,62.9990273 L197.962891,62.9990273 L197.962891,65.6386732 L203.740229,65.6386732 L203.740229,67 L196.269533,67 Z M214.640816,60.6250061 C214.640816,60.1158919 214.469267,59.7451241 214.126168,59.5127025 C213.783069,59.2913486 213.301625,59.1806715 212.681834,59.1806715 L209.95918,59.1806715 L209.95918,62.0693406 L212.681834,62.0693406 C213.301625,62.0693406 213.783069,61.9586636 214.126168,61.7373097 C214.469267,61.5048881 214.640816,61.1341203 214.640816,60.6250061 Z M214.045009,63.2939519 C214.634965,64.0709918 215.569569,65.306341 216.848822,66.9999997 L214.806831,66.9999997 C214.348121,66.3717664 213.476115,65.1819888 212.190812,63.4306672 L209.95918,63.4306672 L209.95918,66.9999997 L208.265822,66.9999997 L208.265822,57.8193444 L212.681833,57.8193444 C213.89928,57.8193444 214.828967,58.0739014 215.470893,58.5830156 C216.101752,59.0921298 216.417181,59.7727932 216.417181,60.6250058 C216.417181,61.4772185 216.101752,62.1578819 215.470893,62.6669961 C215.100574,62.960698 214.625279,63.1696833 214.045009,63.2939522 L214.045009,63.2939519 Z" id="inpiration-keeper" fill="#F1EECB"></path>
        </g>
    </g>
</svg>