<?xml version="1.0" encoding="UTF-8"?>
<svg width="18px" height="18px" viewBox="0 0 18 18" version="1.1" xmlns="http://www.w3.org/2000/svg" xmlns:xlink="http://www.w3.org/1999/xlink">
    <!-- Generator: Sketch 48.2 (47327) - http://www.bohemiancoding.com/sketch -->
    <title>instagram</title>
    <desc>Created with Sketch.</desc>
    <defs></defs>
    <g id="Artboard" stroke="none" stroke-width="1" fill="none" fill-rule="evenodd" transform="translate(-26.000000, -336.000000)">
        <g id="instagram" transform="translate(20.000000, 330.000000)">
            <path d="M11.2926136,6 C8.38742918,6 6,8.38423336 6,11.2926136 L6,18.7073864 C6,21.6125708 8.38423336,24 11.2926136,24 L18.7073864,24 C21.6125708,24 24,21.6157675 24,18.7073864 L24,11.2926136 C24,8.38742918 21.6157675,6 18.7073864,6 L11.2926136,6 Z M11.2926136,7.63636364 L18.7073864,7.63636364 C20.7304685,7.63636364 22.3636364,9.26953145 22.3636364,11.2926136 L22.3636364,18.7073864 C22.3636364,20.7304685 20.7304685,22.3636364 18.7073864,22.3636364 L11.2926136,22.3636364 C9.26953145,22.3636364 7.63636364,20.7304685 7.63636364,18.7073864 L7.63636364,11.2926136 C7.63636364,9.26953145 9.26953145,7.63636364 11.2926136,7.63636364 Z M19.8323864,9.42613636 C19.4200996,9.42613636 19.0909091,9.75532691 19.0909091,10.1676136 C19.0909091,10.5799004 19.4200996,10.9090909 19.8323864,10.9090909 C20.2446731,10.9090909 20.5738636,10.5799004 20.5738636,10.1676136 C20.5738636,9.75532691 20.2446731,9.42613636 19.8323864,9.42613636 Z M15,10.0909091 C12.299361,10.0909091 10.0909091,12.299361 10.0909091,15 C10.0909091,17.700639 12.299361,19.9090909 15,19.9090909 C17.700639,19.9090909 19.9090909,17.700639 19.9090909,15 C19.9090909,12.299361 17.700639,10.0909091 15,10.0909091 Z M15,11.7272727 C16.8185367,11.7272727 18.2727273,13.1814633 18.2727273,15 C18.2727273,16.8185367 16.8185367,18.2727273 15,18.2727273 C13.1814633,18.2727273 11.7272727,16.8185367 11.7272727,15 C11.7272727,13.1814633 13.1814633,11.7272727 15,11.7272727 Z" id="Shape" fill="#2145FF" fill-rule="nonzero"></path>
            <rect id="Rectangle-11-Copy-2" x="0" y="0" width="30" height="30"></rect>
        </g>
    </g>
</svg>