<?xml version="1.0" encoding="UTF-8"?>
<svg width="16px" height="11px" viewBox="0 0 16 11" version="1.1" xmlns="http://www.w3.org/2000/svg" xmlns:xlink="http://www.w3.org/1999/xlink">
    <!-- Generator: Sketch 48.2 (47327) - http://www.bohemiancoding.com/sketch -->
    <title>views</title>
    <desc>Created with Sketch.</desc>
    <defs></defs>
    <g id="Artboard" stroke="none" stroke-width="1" fill="none" fill-rule="evenodd" transform="translate(-291.000000, -843.000000)">
        <g id="views" transform="translate(289.000000, 838.000000)">
            <path d="M10,8.4 C10.3520018,8.4 10.6826651,8.49066576 10.992,8.672 C11.3013349,8.85333424 11.5466658,9.09866512 11.728,9.408 C11.9093342,9.71733488 12,10.0479982 12,10.4 C12,10.7520018 11.9093342,11.0826651 11.728,11.392 C11.5466658,11.7013349 11.3013349,11.9466658 10.992,12.128 C10.6826651,12.3093342 10.3520018,12.4 10,12.4 C9.64799824,12.4 9.31733488,12.3093342 9.008,12.128 C8.69866512,11.9466658 8.45333424,11.7013349 8.272,11.392 C8.09066576,11.0826651 8,10.7520018 8,10.4 C8,10.0479982 8.09066576,9.71733488 8.272,9.408 C8.45333424,9.09866512 8.69866512,8.85333424 9.008,8.672 C9.31733488,8.49066576 9.64799824,8.4 10,8.4 Z M10,13.744 C10.608003,13.744 11.1679974,13.5946682 11.68,13.296 C12.1920026,12.9973318 12.5973318,12.5920026 12.896,12.08 C13.1946682,11.5679974 13.344,11.008003 13.344,10.4 C13.344,9.79199696 13.1946682,9.23200256 12.896,8.72 C12.5973318,8.20799744 12.1920026,7.80266816 11.68,7.504 C11.1679974,7.20533184 10.608003,7.056 10,7.056 C9.39199696,7.056 8.83200256,7.20533184 8.32,7.504 C7.80799744,7.80266816 7.40266816,8.20799744 7.104,8.72 C6.80533184,9.23200256 6.656,9.79199696 6.656,10.4 C6.656,11.008003 6.80533184,11.5679974 7.104,12.08 C7.40266816,12.5920026 7.80799744,12.9973318 8.32,13.296 C8.83200256,13.5946682 9.39199696,13.744 10,13.744 Z M10,5.392 C11.0986722,5.392 12.143995,5.6053312 13.136,6.032 C14.0960048,6.44800208 14.9413297,7.03466288 15.672,7.792 C16.4026703,8.54933712 16.9599981,9.41866176 17.344,10.4 C16.9599981,11.3813382 16.4026703,12.2479962 15.672,13 C14.9413297,13.7520038 14.0960048,14.3359979 13.136,14.752 C12.143995,15.1786688 11.0986722,15.392 10,15.392 C8.90132784,15.392 7.85600496,15.1786688 6.864,14.752 C5.9039952,14.3359979 5.05867032,13.7520038 4.328,13 C3.59732968,12.2479962 3.04000192,11.3813382 2.656,10.4 C3.04000192,9.41866176 3.59732968,8.54933712 4.328,7.792 C5.05867032,7.03466288 5.9039952,6.44800208 6.864,6.032 C7.85600496,5.6053312 8.90132784,5.392 10,5.392 Z" id="remove_red_eye---material" fill="#A4A4A4"></path>
            <rect id="Rectangle-9" x="0" y="0" width="20" height="20"></rect>
        </g>
    </g>
</svg>